<svg xmlns="http://www.w3.org/2000/svg" viewBox="0 0 2600 2600">
  <path fill="#fff" fill-rule="nonzero" d="M605.2,1930.2C601.7,1930.2 598.8,1929 596.3,1926.5C593.7,1924 592.6,1921.1 592.6,1917.7L592.6,1826L487.9,1619.1C487.3,1617.8 487,1616.4 487,1614.9C487,1612.1 487.9,1609.7 490.1,1607.7C492,1605.7 494.3,1604.6 497.2,1604.6L584.6,1604.6C589.9,1604.6 594.1,1606 597.4,1608.6C600.7,1611.2 602.8,1613.8 604.2,1616.3L650.7,1709.8L697.2,1616.3C698.4,1613.8 700.7,1611.2 704,1608.6C707.1,1606 711.4,1604.6 716.8,1604.6L804.2,1604.6C806.9,1604.6 809.4,1605.7 811.4,1607.7C813.3,1609.7 814.5,1612.1 814.5,1614.9C814.5,1616.4 814.1,1617.8 813.5,1619.1L708.9,1826L708.9,1917.7C708.9,1921.1 707.5,1924 705.2,1926.5C702.7,1929 699.7,1930.2 696.3,1930.2L605.2,1930.2Z"/>
  <path fill="#fff" fill-rule="nonzero" d="M785,1930.2C782.3,1930.2 780,1929.2 777.9,1927.2C775.9,1925.2 774.9,1922.8 774.9,1920C774.9,1918.8 774.9,1917.7 775.3,1916.7L879,1620C880.4,1616 882.7,1612.4 886,1609.3C889.5,1606.2 894.1,1604.6 899.9,1604.6L1000.9,1604.6C1006.7,1604.6 1011.4,1606.2 1014.9,1609.3C1018.4,1612.4 1020.7,1616 1021.8,1620L1125.5,1916.7C1125.9,1917.7 1126.1,1918.8 1126.1,1920C1126.1,1922.8 1124.9,1925.2 1123,1927.2C1121.1,1929.2 1118.6,1930.2 1115.8,1930.2L1029.8,1930.2C1020.5,1930.2 1014.5,1926.4 1011.6,1918.6L1000.5,1887.9L900.5,1887.9L889.3,1918.6C886.6,1926.4 880.4,1930.2 871.1,1930.2L785,1930.2ZM924.2,1797.2L976.7,1797.2L950.1,1710.7L924.2,1797.2Z"/>
  <path fill="#fff" fill-rule="nonzero" d="M1282.3,1934.9C1249.4,1934.9 1221.6,1930.4 1198.8,1921.4C1176.1,1912.4 1158.9,1900.4 1147.4,1885.3C1136,1870.3 1130,1853.8 1129.2,1835.8C1129.2,1833 1130.4,1830.6 1132.3,1828.6C1134.2,1826.6 1136.8,1825.6 1139.5,1825.6L1227.9,1825.6C1232.3,1825.6 1235.8,1826.1 1238.3,1827.2C1241,1828.3 1244.1,1830.4 1247.8,1833.5C1256.9,1840.6 1268.4,1844.2 1282.3,1844.2C1292.8,1844.2 1301.3,1843 1307.7,1840.7C1314.1,1838.4 1317.2,1835.2 1317.2,1831.2C1317.2,1825.6 1312.9,1821.3 1304.6,1818.4C1296.3,1815.4 1280.4,1812.4 1257.1,1809.3C1177.3,1798.8 1137.2,1764.6 1137.2,1707C1137.2,1686.2 1143.2,1667.7 1155.2,1651.4C1167,1635.1 1183.7,1622.5 1205.2,1613.5C1226.5,1604.5 1251.1,1600 1279,1600C1308.3,1600 1333.9,1605 1355.8,1614.9C1377.9,1624.8 1394.7,1637.3 1406.5,1652.3C1418.4,1667.4 1424.6,1682 1425.1,1696.3C1425.1,1699.1 1424.2,1701.5 1422,1703.5C1420.1,1705.5 1417.8,1706.5 1415.3,1706.5L1322.2,1706.5C1318,1706.5 1314.5,1706 1312.2,1704.9C1309.6,1703.8 1306.7,1701.9 1303.6,1699.1C1297.2,1693.5 1288.9,1690.7 1279,1690.7C1264.1,1690.7 1256.7,1695 1256.7,1703.7C1256.7,1708.4 1260.4,1712.2 1267.6,1715.3C1274.9,1718.4 1288.5,1721.2 1308.3,1723.7C1339.3,1727.7 1364.3,1733.8 1383.1,1741.9C1401.7,1749.9 1415.4,1760.7 1424,1774.2C1432.5,1787.7 1436.8,1804.6 1436.8,1825.1C1436.8,1847.1 1430,1866.4 1416.8,1883C1403.4,1899.6 1385,1912.4 1361.6,1921.4C1338.1,1930.4 1311.8,1934.9 1282.3,1934.9Z"/>
  <path fill="#fff" fill-rule="nonzero" d="M1449.8,1930.2C1447,1930.2 1444.5,1929.2 1442.6,1927.2C1440.4,1925.2 1439.5,1922.8 1439.5,1920C1439.5,1918.8 1439.7,1917.7 1440.1,1916.7L1543.7,1620C1544.9,1616 1547.2,1612.4 1550.7,1609.3C1554,1606.2 1558.7,1604.6 1564.7,1604.6L1665.6,1604.6C1671.5,1604.6 1676.1,1606.2 1679.6,1609.3C1682.9,1612.4 1685.2,1616 1686.6,1620L1790.3,1916.7C1790.5,1917.7 1790.6,1918.8 1790.6,1920C1790.6,1922.8 1789.7,1925.2 1787.7,1927.2C1785.6,1929.2 1783.3,1930.2 1780.4,1930.2L1694.3,1930.2C1685,1930.2 1679,1926.4 1676.3,1918.6L1665.1,1887.9L1565.1,1887.9L1554,1918.6C1551.1,1926.4 1545.1,1930.2 1535.8,1930.2L1449.8,1930.2ZM1588.9,1797.2L1641.4,1797.2L1614.9,1710.7L1588.9,1797.2Z"/>
  <path fill="#fff" fill-rule="nonzero" d="M1828.8,1930.2C1825.3,1930.2 1822.4,1929 1819.9,1926.5C1817.6,1924 1816.2,1921.1 1816.2,1917.7L1816.2,1617.2C1816.2,1613.8 1817.6,1610.8 1819.9,1608.4C1822.4,1605.9 1825.3,1604.6 1828.8,1604.6L1902.3,1604.6C1911,1604.6 1917.4,1608.2 1921.5,1615.3L1999.9,1744.2L1999.9,1617.2C1999.9,1613.8 2001.3,1610.8 2003.6,1608.4C2006.1,1605.9 2009.1,1604.6 2012.5,1604.6L2096.7,1604.6C2100.1,1604.6 2103,1605.9 2105.6,1608.4C2108.1,1610.8 2109.3,1613.8 2109.3,1617.2L2109.3,1917.7C2109.3,1921.1 2108.1,1924 2105.6,1926.5C2103,1929 2100.1,1930.2 2096.7,1930.2L2023.2,1930.2C2018,1930.2 2013.9,1929.1 2011.2,1927C2008.3,1924.8 2006,1922.3 2004.2,1919.5L1925.5,1800.9L1925.5,1917.7C1925.5,1921.1 1924.4,1924 1921.8,1926.5C1919.3,1929 1916.4,1930.2 1912.9,1930.2L1828.8,1930.2Z"/>
  <path fill="#fff" fill-rule="nonzero" d="M659.4,2400C611.4,2400 573.8,2389.3 546.5,2367.9C519.1,2346.5 504.6,2314.6 502.9,2272.1C502.5,2263.7 502.3,2249.9 502.3,2230.7C502.3,2211.2 502.5,2197 502.9,2188.4C504.4,2148.1 519.1,2117.4 547,2096.5C574.9,2075.6 612.3,2065.1 659.4,2065.1C691.2,2065.1 719.1,2069.8 743.2,2079.1C767.4,2088.4 786,2100.9 799,2116.7C812.2,2132.6 818.9,2149.9 819.5,2168.8C819.5,2171.6 818.5,2174 816.4,2176C814.5,2178.1 812.2,2179.1 809.2,2179.1L706.5,2179.1C700.3,2179.1 695.9,2177.4 693,2173.9C692.8,2173.3 691.2,2171.4 688.9,2168.1C686.4,2164.9 682.5,2162 677.5,2159.5C672.2,2157 666.4,2155.8 659.4,2155.8C636.6,2155.8 624.6,2167.4 623.8,2190.7C623.4,2199.1 623.2,2212.1 623.2,2229.8C623.2,2247.4 623.4,2260.8 623.8,2269.8C624.6,2296.1 637.2,2309.3 661.4,2309.3C673.8,2309.3 683.5,2306.7 690.4,2301.4C697.4,2296.1 700.9,2287.7 700.9,2276.3L700.9,2275.8L679,2275.8C675.7,2275.8 672.6,2274.6 670.3,2272.1C667.8,2269.6 666.4,2266.7 666.4,2263.3L666.4,2211.6C666.4,2208.2 667.8,2205.3 670.3,2202.8C672.6,2200.3 675.7,2199.1 679,2199.1L806.9,2199.1C810.4,2199.1 813.3,2200.3 815.8,2202.8C818.4,2205.3 819.5,2208.2 819.5,2211.6L819.5,2272.1C819.5,2299.4 812.7,2322.6 799.4,2341.9C785.8,2361.1 767,2375.6 743,2385.3C718.9,2395.1 691.2,2400 659.4,2400Z"/>
  <path fill="#fff" fill-rule="nonzero" d="M874,2395.3C870.5,2395.3 867.6,2394.1 865.1,2391.6C862.5,2389.1 861.4,2386.2 861.4,2382.8L861.4,2082.3C861.4,2078.9 862.5,2076 865.1,2073.5C867.6,2071 870.5,2069.8 874,2069.8L967,2069.8C970.3,2069.8 973.4,2071 975.7,2073.5C978.2,2076 979.6,2078.9 979.6,2082.3L979.6,2300L1108.3,2300C1111.8,2300 1114.7,2301.2 1117.2,2303.7C1119.7,2306.2 1120.9,2309.1 1120.9,2312.6L1120.9,2382.8C1120.9,2386.2 1119.7,2389.1 1117.2,2391.6C1114.7,2394.1 1111.8,2395.3 1108.3,2395.3L874,2395.3Z"/>
  <path fill="#fff" fill-rule="nonzero" d="M1137.2,2395.3C1134.4,2395.3 1131.9,2394.3 1130,2392.3C1128,2390.3 1126.9,2387.9 1126.9,2385.1C1126.9,2383.9 1127.1,2382.8 1127.5,2381.9L1231.1,2085.1C1232.3,2081.1 1234.6,2077.5 1238.1,2074.4C1241.6,2071.3 1246.3,2069.8 1252.1,2069.8L1353,2069.8C1358.9,2069.8 1363.5,2071.3 1367,2074.4C1370.3,2077.5 1372.6,2081.1 1374,2085.1L1477.7,2381.9C1478,2382.8 1478,2383.9 1478,2385.1C1478,2387.9 1477.1,2390.3 1475.1,2392.3C1473,2394.3 1470.7,2395.3 1468,2395.3L1381.9,2395.3C1372.6,2395.3 1366.4,2391.5 1363.7,2383.7L1352.5,2353L1252.5,2353L1241.4,2383.7C1238.5,2391.5 1232.5,2395.3 1223.2,2395.3L1137.2,2395.3ZM1276.3,2262.3L1328.8,2262.3L1302.3,2175.8L1276.3,2262.3Z"/>
  <path fill="#fff" fill-rule="nonzero" d="M1634.4,2400C1601.5,2400 1573.8,2395.5 1550.9,2386.5C1528,2377.5 1511,2365.5 1499.6,2350.5C1488.1,2335.4 1481.9,2318.9 1481.3,2300.9C1481.3,2298.1 1482.3,2295.7 1484.4,2293.7C1486.4,2291.7 1488.9,2290.7 1491.6,2290.7L1580,2290.7C1584.2,2290.7 1587.7,2291.2 1590.4,2292.3C1593.2,2293.4 1596.3,2295.5 1599.9,2298.6C1609.1,2305.7 1620.5,2309.3 1634.4,2309.3C1644.9,2309.3 1653.4,2308.1 1659.8,2305.8C1666,2303.5 1669.3,2300.3 1669.3,2296.3C1669.3,2290.7 1665.1,2286.4 1656.7,2283.5C1648.4,2280.5 1632.5,2277.5 1609.2,2274.4C1529.2,2263.9 1489.3,2229.8 1489.3,2172.1C1489.3,2151.3 1495.3,2132.8 1507.1,2116.5C1519.1,2100.2 1535.8,2087.6 1557.1,2078.6C1578.6,2069.6 1603.2,2065.1 1631.1,2065.1C1660.2,2065.1 1685.8,2070.1 1707.9,2080C1730,2089.9 1746.8,2102.4 1758.7,2117.4C1770.3,2132.5 1776.5,2147.1 1777.3,2161.4C1777.3,2164.2 1776.1,2166.6 1774.2,2168.6C1772.2,2170.6 1769.9,2171.6 1767.4,2171.6L1674.4,2171.6C1670.1,2171.6 1666.6,2171.1 1664.1,2170C1661.8,2168.9 1658.9,2167 1655.8,2164.2C1649.4,2158.6 1641,2155.8 1631.1,2155.8C1616.2,2155.8 1608.9,2160.1 1608.9,2168.8C1608.9,2173.5 1612.5,2177.4 1619.7,2180.5C1627.1,2183.6 1640.6,2186.4 1660.4,2188.8C1691.4,2192.9 1716.4,2198.9 1735,2207C1753.8,2215 1767.6,2225.8 1776.1,2239.3C1784.6,2252.8 1788.9,2269.8 1788.9,2290.2C1788.9,2312.2 1782.1,2331.5 1768.7,2348.1C1755.6,2364.7 1737.2,2377.5 1713.7,2386.5C1690.3,2395.5 1663.9,2400 1634.4,2400Z"/>
  <path fill="#fff" fill-rule="nonzero" d="M1958.7,2400C1925.7,2400 1897.8,2395.5 1875.1,2386.5C1852.3,2377.5 1835.2,2365.5 1823.8,2350.5C1812.2,2335.4 1806.2,2318.9 1805.6,2300.9C1805.6,2298.1 1806.5,2295.7 1808.7,2293.7C1810.6,2291.7 1812.9,2290.7 1815.8,2290.7L1904.2,2290.7C1908.5,2290.7 1912,2291.2 1914.7,2292.3C1917.2,2293.4 1920.5,2295.5 1924.2,2298.6C1933.1,2305.7 1944.7,2309.3 1958.7,2309.3C1969.1,2309.3 1977.7,2308.1 1983.9,2305.8C1990.3,2303.5 1993.6,2300.3 1993.6,2296.3C1993.6,2290.7 1989.3,2286.4 1981,2283.5C1972.6,2280.5 1956.7,2277.5 1933.5,2274.4C1853.4,2263.9 1813.5,2229.8 1813.5,2172.1C1813.5,2151.3 1819.5,2132.8 1831.3,2116.5C1843.4,2100.2 1860,2087.6 1881.3,2078.6C1902.9,2069.6 1927.5,2065.1 1955.4,2065.1C1984.4,2065.1 2010,2070.1 2032.1,2080C2054,2089.9 2071.1,2102.4 2082.7,2117.4C2094.5,2132.5 2100.7,2147.1 2101.3,2161.4C2101.3,2164.2 2100.3,2166.6 2098.4,2168.6C2096.3,2170.6 2094.1,2171.6 2091.6,2171.6L1998.6,2171.6C1994.3,2171.6 1990.8,2171.1 1988.3,2170C1985.8,2168.9 1983.1,2167 1980,2164.2C1973.4,2158.6 1965.3,2155.8 1955.4,2155.8C1940.5,2155.8 1933.1,2160.1 1933.1,2168.8C1933.1,2173.5 1936.6,2177.4 1943.9,2180.5C1951.3,2183.6 1964.9,2186.4 1984.6,2188.8C2015.6,2192.9 2040.5,2198.9 2059.2,2207C2078,2215 2091.6,2225.8 2100.1,2239.3C2108.7,2252.8 2112.9,2269.8 2112.9,2290.2C2112.9,2312.2 2106.3,2331.5 2093,2348.1C2079.6,2364.7 2061.4,2377.5 2037.9,2386.5C2014.5,2395.5 1988.1,2400 1958.7,2400Z"/>
  <path fill="#fff" fill-rule="nonzero" d="M1060.9,682.6L1213.9,835.7L1213.9,1070.4L943.5,800L1060.9,682.6ZM1417.4,560.9L1300,678.3L1182.6,560.9L1300,443.5L1417.4,560.9ZM1386.1,835.7L1539.1,682.6L1656.5,800L1386.1,1070.4L1386.1,835.7ZM1300,200L700,800L1300,1400L1900,800L1300,200Z"/>
</svg>
